# xmcd
#
# Track frame offsets: 
#        150
#        12456
#        22317
#        35523
#        43996
#        54648
#        67344
#        84904
#        103213
#        121256
#        136751
#        150950
#        165016
#        178033
#        197288
#        213245
#        235164
#
# Disc length: 3335 seconds
#
# Revision: 2
# Processed by: cddbd v1.5.2PL0 Copyright (c) Steve Scherf et al.
# Submitted via: ExactAudioCopyFreeDBPlugin 1.0
#
DISCID=df0d0511
DTITLE=Various Artist - Holland Dozier Holland:  The Complete 45s Col
DTITLE=lection (Invictus, Hot Wax, Music Merchant), 1969-1977 [Harmles
DTITLE=s box set]
DYEAR=2014
DGENRE=Soul
TTITLE0=Lee Charles - Get Your House in Order (instrumental)
TTITLE1=The Chairmen of the Board - Live with Me, Love with Me
TTITLE2=Brian Holland - I'm So Glad (Part 2)
TTITLE3=Natural High - Bump Your Lady (Part 2)
TTITLE4=The Chairmen of the Board - Morning Glory (instrumental)
TTITLE5=Tyrone Edwards - You Took Me from a World Outside
TTITLE6=The Chairmen of the Board - Love at First Sight
TTITLE7=Brian Holland - Superwoman (You Ain't No Ordinary Woman)
TTITLE8=Laura Lee - (If You Want to Try Love Again) Remember Me
TTITLE9=The Hi Lites - That's Love (instrumental)
TTITLE10=Earl English - Wanting You (instrumental)
TTITLE11=Eloise Laws - Stay with Me
TTITLE12=The Chairmen of the Board - Someone Just Like You (ft Prince 
TTITLE12=Harold)
TTITLE13=New York Port Authority - I Got It (Part 2)
TTITLE14=Eloise Laws - Put a Little Love Into It (When You Do It)
TTITLE15=Eloise Laws - Camouflage
TTITLE16=New York Port Authority - Guess I'm Gonna Cry
EXTD=
EXTT0=
EXTT1=
EXTT2=
EXTT3=
EXTT4=
EXTT5=
EXTT6=
EXTT7=
EXTT8=
EXTT9=
EXTT10=
EXTT11=
EXTT12=
EXTT13=
EXTT14=
EXTT15=
EXTT16=
PLAYORDER=
